# AST/ASF file generated using VICON BodyLanguage
# -----------------------------------------------
:version 1.10
:name VICON
:units
  mass 1.0
  length 0.45
  angle deg
:documentation
   .ast/.asf automatically generated from VICON data using
   VICON BodyBuilder and BodyLanguage model FoxedUp or BRILLIANT.MOD
:root
   order TX TY TZ RX RY RZ
   axis XYZ
   position 0 0 0  
   orientation 0 0 0 
:bonedata
  begin
     id 1 
     name lhipjoint
     direction 0.677091 -0.635792 0.370561 
     length 2.74323 
     axis 0 0 0  XYZ
  end
  begin
     id 2 
     name lfemur
     direction 0.34202 -0.939693 0  
     length 7.44995  
     axis 0 0 20  XYZ
    dof rx ry rz
    limits (-160.0 20.0)
           (-70.0 70.0)
           (-60.0 70.0)
  end
  begin
     id 3 
     name ltibia
     direction 0.34202 -0.939693 0   
     length 7.34467   
     axis 0 0 20   XYZ
    dof rx
    limits (-10.0 170.0)
  end
  begin
     id 4 
     name lfoot
     direction 0.101953 -0.280114 0.954537   
     length 1.72105   
     axis -90 7.62852e-016 20   XYZ
    dof rx rz
    limits (-45.0 90.0)
           (-70.0 20.0)
  end
  begin
     id 5 
     name ltoes
     direction 1.53537e-011 -4.21915e-011 1   
     length 0.865872   
     axis -90 7.62852e-016 20   XYZ
    dof rx
    limits (-90.0 20.0)
  end
  begin
     id 6 
     name rhipjoint
     direction -0.695735 -0.620586 0.361699   
     length 2.81045  
     axis 0 0 0  XYZ 
  end
  begin
     id 7 
     name rfemur
     direction -0.34202 -0.939693 0   
     length 7.29387   
     axis 0 0 -20   XYZ
    dof rx ry rz
    limits (-160.0 20.0)
           (-70.0 70.0)
           (-70.0 60.0)
  end
  begin
     id 8 
     name rtibia
     direction -0.34202 -0.939693 0   
     length 7.44935   
     axis 0 0 -20   XYZ
    dof rx
    limits (-10.0 170.0)
 end
 begin
     id 9 
     name rfoot
     direction -0.104163 -0.286184 0.952496   
     length 1.77731  
     axis -90 -7.62852e-016 -20   XYZ
    dof rx rz
    limits (-45.0 90.0)
           (-20.0 70.0)
  end
  begin
     id 10 
     name rtoes
     direction -1.5355e-011 -4.21888e-011 1   
     length 0.892424   
     axis -90 -7.62852e-016 -20   XYZ
    dof rx
    limits (-90.0 20.0)
  end
  begin
     id 11 
     name lowerback
     direction 0.0100202 0.997226 -0.0737589   
     length 2.16892   
     axis 0 0 0   XYZ
    dof rx ry rz
    limits (-20.0 45.0)
           (-30.0 30.0)
           (-30.0 30.0)
  end
  begin
     id 12 
     name upperback
     direction 0.00432398 0.999988 -0.00215019   
     length 2.17326   
     axis 0 0 0   XYZ
    dof rx ry rz
    limits (-20.0 45.0)
           (-30.0 30.0)
           (-30.0 30.0)
  end
  begin
     id 13 
     name thorax
     direction -0.00195047 0.999485 0.0320434   
     length 2.18139   
     axis 0 0 0   XYZ
    dof rx ry rz
    limits (-20.0 45.0)
           (-30.0 30.0)
           (-30.0 30.0)
  end
  begin
     id 14 
     name lowerneck
     direction 0.00782762 0.986241 0.165128   
     length 1.88415   
     axis 0 0 0   XYZ
    dof rx ry rz
    limits (-20.0 45.0)
           (-30.0 30.0)
           (-30.0 30.0)
  end
  begin
     id 15 
     name upperneck
     direction 0.00988667 0.981098 -0.193258   
     length 1.9242   
     axis 0 0 0   XYZ
    dof rx ry rz
    limits (-20.0 45.0)
           (-30.0 30.0)
           (-30.0 30.0)
  end
  begin
     id 16
     name head
     direction 0.00252199 0.996513 -0.0833958  
     length 1.93887  
     axis 0 0 0   XYZ
    dof rx ry rz
    limits (-20.0 45.0)
           (-30.0 30.0)
           (-30.0 30.0)
  end
  begin
     id 17 
     name lclavicle
     direction 0.929492 0.368193 -0.0218667  
     length 3.5955  
     axis 0 0 0   XYZ
    dof ry rz
    limits (-20.0 10.0)
           (0.0 20.0)
  end
  begin
     id 18 
     name lhumerus
     direction 1 -4.48972e-011 1.41911e-027   
     length 5.2795   
     axis 180 -30 -90   XYZ
    dof rx ry rz
    limits (-60.0 90.0)
           (-90.0 90.0)
           (-90.0 90.0)
  end
  begin
     id 19
     name lradius
     direction 1 -4.48963e-011 7.05772e-027   
     length 3.53504   
     axis 180 -30 -90   XYZ
    dof rx
    limits (-10.0 170.0)
  end
  begin
     id 20
     name lwrist
     direction 1 -4.48957e-011 9.54866e-027   
     length 1.76752   
     axis -7.69462e-015 90 90   XYZ
    dof ry
    limits (-180.0 0.0)
 end
  begin
     id 21 
     name lhand
     direction 1 -4.48979e-011 1.90973e-026   
     length 0.667948   
     axis -1.21857e-014 90 90   XYZ
    dof rx rz
    limits (-90.0 90.0)
           (-45.0 45.0)
  end
  begin
     id 22 
     name lfingers
     direction 1 -4.48987e-011 3.81946e-026   
     length 0.538517   
     axis -2.43714e-014 90 90   XYZ
    dof rx
    limits (0.0 90.0)
  end
  begin
     id 23
     name lthumb
     direction 0.707107 -6.34962e-011 0.707107   
     length 0.773206   
     axis -90 45 2.85299e-015   XYZ
    dof rx rz
    limits (-45.0 45.0)
           (-45.0 45.0)
  end
  begin
     id 24 
     name rclavicle
     direction -0.898763 0.414256 -0.143584   
     length 3.5176  
     axis 0 0 0   XYZ 
    dof ry rz
    limits (-10.0 20.0)
           (-20.0 0.0)
  end
  begin
     id 25 
     name rhumerus
     direction -1 -4.48971e-011 1.129e-027  
     length 5.25035   
     axis 180 30 90   XYZ
    dof rx ry rz
    limits (-90.0 60.0)
           (-90.0 90.0)
           (-90.0 90.0)
  end
  begin
     id 26 
     name rradius
     direction -1 -4.48955e-011 6.34664e-027   
     length 3.58884   
     axis 180 30 90   XYZ
    dof rx
    limits (-10.0 170.0)
  end
  begin
     id 27 
     name rwrist
     direction -1 -4.48966e-011 9.54866e-027   
     length 1.79442   
     axis -7.69462e-015 -90 -90   XYZ
    dof ry
    limits (-180.0 0.0)
  end
  begin
     id 28
     name rhand
     direction -1 -4.48973e-011 1.90973e-026   
     length 0.779235   
     axis -1.21857e-014 -90 -90   XYZ
    dof rx rz
    limits (-90.0 90.0)
           (-45.0 45.0)
  end
  begin
     id 29
     name rfingers
     direction -1 -4.48984e-011 3.81946e-026   
     length 0.62824   
     axis -2.43714e-014 -90 -90   XYZ
    dof rx
    limits (0.0 90.0)
  end
  begin
     id 30
     name rthumb
     direction -0.707107 -6.34968e-011 0.707107   
     length 0.90203   
     axis -90 -45 -2.85299e-015   XYZ
    dof rx rz
    limits (-45.0 45.0)
           (-45.0 45.0)
  end
:hierarchy
  begin
    root lhipjoint rhipjoint lowerback
    lhipjoint lfemur
    lfemur ltibia
    ltibia lfoot
    lfoot ltoes
    rhipjoint rfemur
    rfemur rtibia
    rtibia rfoot
    rfoot rtoes
    lowerback upperback
    upperback thorax
    thorax lowerneck lclavicle rclavicle
    lowerneck upperneck
    upperneck head
    lclavicle lhumerus
    lhumerus lradius
    lradius lwrist
    lwrist lhand lthumb
    lhand lfingers
    rclavicle rhumerus
    rhumerus rradius
    rradius rwrist
    rwrist rhand rthumb
    rhand rfingers
  end

#!OML:ASF I:\Random Stuff\random\construction\7_22_03\Session 2\subj1.ASF
:FULLY-SPECIFIED
:DEGREES
1
root -17.3822 17.4555 -2.258 -43.8662 88.8677 -48.0917
lowerback -0.278928 0.607216 -1.57557
upperback -2.40108 0.836448 0.992216
thorax -2.34367 0.471393 1.88596
lowerneck -24.9444 -0.157348 0.388325
upperneck 28.674 -0.307871 0.629602
head 13.948 0.119354 0.157407
rclavicle -3.6946e-015 -2.18663e-015
rhumerus -35.6697 8.76745 -81.4732
rradius 39.5454
rwrist -3.93587
rhand -17.1977 20.6444
rfingers 7.12502
rthumb 9.04459 -9.14165
lclavicle -3.6946e-015 -2.18663e-015
lhumerus -35.2055 -0.306081 85.708
lradius 28.9172
lwrist 24.927
lhand -19.0108 54.5811
lfingers 7.12502
lthumb 7.29472 84.4354
rfemur 0.348992 26.9612 21.4182
rtibia 11.6935
rfoot -16.1356 -38.7953
rtoes -1.67268
lfemur -10.8788 -11.6731 -18.4013
ltibia 27.1578
lfoot -19.7309 17.1896
ltoes -29.3365
2
root -17.4126 17.4801 -2.23255 -47.0496 88.963 -51.3082
lowerback -0.147076 0.523019 -1.58048
upperback -2.43319 0.724888 1.08861
thorax -2.44738 0.41838 1.98852
lowerneck -24.8019 -0.161973 0.33526
upperneck 28.5023 -0.361581 0.826216
head 13.8457 0.116773 0.233901
rclavicle -5.88589e-016 -1.78906e-015
rhumerus -35.5437 6.69531 -81.5977
rradius 39.29
rwrist -1.52456
rhand -17.5344 21.1762
rfingers 7.12502
rthumb 8.71969 -8.62367
lclavicle -5.88589e-016 -1.78906e-015
lhumerus -35.6435 -0.00842703 85.5499
lradius 28.967
lwrist 24.9985
lhand -18.5807 54.4055
lfingers 7.12502
lthumb 7.70989 84.245
rfemur 0.0658976 26.5325 21.3393
rtibia 11.8862
rfoot -16.5249 -38.1284
rtoes -0.593925
lfemur -10.7157 -13.8372 -18.4153
ltibia 26.7075
lfoot -19.6862 19.0225
ltoes -28.3116
3
root -17.4442 17.493 -2.20344 -50.5889 88.9894 -54.8131
lowerback -0.101225 0.478351 -1.51016
upperback -2.31962 0.664347 1.12545
thorax -2.35294 0.384407 1.98827
lowerneck -24.9281 -0.0756694 0.336712
upperneck 28.4024 -0.304572 1.00442
head 13.8297 0.164951 0.314918
rclavicle 6.59406e-015 -7.45443e-015
rhumerus -35.4759 5.33843 -81.776
rradius 39.3143
rwrist -0.00186966
rhand -17.7037 21.3611
rfingers 7.12502
rthumb 8.55631 -8.44557
lclavicle 6.59406e-015 -7.45443e-015
lhumerus -35.8363 0.146015 85.4151
lradius 29.1307
lwrist 25.4673
lhand -18.7847 54.6543
lfingers 7.12502
lthumb 7.51298 84.5009
rfemur -0.288968 25.9902 21.3582
rtibia 12.3403
rfoot -16.7578 -37.517
rtoes -0.191502
lfemur -10.5607 -15.0815 -18.3226
ltibia 26.3246
lfoot -19.5039 20.035
ltoes -27.7254
4
root -17.4768 17.5028 -2.17275 -53.6681 89.0348 -57.8325
lowerback -0.0907942 0.431896 -1.46282
upperback -2.1613 0.600098 1.13162
thorax -2.19241 0.347486 1.96984
lowerneck -24.9889 -0.00125002 0.309878
upperneck 28.1864 -0.282221 1.26585
head 13.7512 0.205433 0.426121
rclavicle 2.82492e-015 1.49089e-014
rhumerus -35.5171 4.63601 -81.9841
rradius 39.4382
rwrist 1.02155
rhand -17.9195 21.6967
rfingers 7.12502
rthumb 8.34801 -8.11831
lclavicle 2.82492e-015 1.49089e-014
lhumerus -35.9382 0.317861 85.2148
lradius 29.297
lwrist 25.779
lhand -18.7908 54.828
lfingers 7.12502
lthumb 7.50707 84.6748
rfemur -0.647519 25.5793 21.3856
rtibia 12.8757
rfoot -17.0422 -37.0736
rtoes 0.248805
lfemur -10.3906 -15.7507 -18.2247
ltibia 25.8896
lfoot -19.352 20.5406
ltoes -27.0725
5
root -17.5111 17.5131 -2.14277 -55.2247 89.0966 -59.3654
lowerback -0.0305514 0.415919 -1.46053
upperback -2.08213 0.576617 1.13121
thorax -2.14375 0.333977 1.96841
lowerneck -24.9522 -0.00549793 0.359008
upperneck 28.0075 -0.361322 1.41061
head 13.669 0.194691 0.458726
rclavicle 4.28435e-015 7.55382e-015
rhumerus -35.707 4.33207 -82.1156
rradius 39.4405
rwrist 1.76635
rhand -18.1425 22.2915
rfingers 7.12502
rthumb 8.13285 -7.53196
lclavicle 4.28435e-015 7.55382e-015
lhumerus -36.188 0.2445 85.08
lradius 29.6383
lwrist 26.1866
lhand -18.776 55.2168
lfingers 7.12502
lthumb 7.52137 85.0631
rfemur -1.12209 25.2806 21.3614
rtibia 13.5521
rfoot -17.4731 -36.7025
rtoes 0.761107
lfemur -10.2336 -16.4484 -18.1614
ltibia 25.4174
lfoot -19.5197 21.0869
ltoes -25.6242
6
root -17.5473 17.5232 -2.1143 -56.3897 89.2197 -60.5545
lowerback 0.0641634 0.407924 -1.5235
upperback -2.05553 0.562701 1.10369
thorax -2.16941 0.327518 1.97518
lowerneck -24.8471 0.0201197 0.524725
upperneck 27.7787 -0.402365 1.43147
head 13.5512 0.194077 0.428749
rclavicle -6.46895e-015 -7.95139e-016
rhumerus -35.8749 4.23069 -82.2059
rradius 39.2554
rwrist 2.32693
rhand -18.1516 22.8156
rfingers 7.12502
rthumb 8.12407 -7.00822
lclavicle -6.46895e-015 -7.95139e-016
lhumerus -36.4433 0.210895 84.8881
lradius 29.9338
lwrist 26.3496
lhand -18.758 55.4246
lfingers 7.12502
lthumb 7.53872 85.2703
rfemur -1.71238 24.8559 21.2313
rtibia 14.2929
rfoot -17.7887 -36.2692
rtoes 0.923325
lfemur -10.1137 -17.2575 -18.1551
ltibia 24.8905
lfoot -18.9372 21.9077
ltoes -26.7264
7
root -17.5836 17.5413 -2.08726 -61.1049 89.3183 -65.3157
lowerback 0.155494 0.380537 -1.57116
upperback -2.02826 0.523996 1.11532
thorax -2.19158 0.308864 2.01418
lowerneck -24.8345 0.0403497 0.696788
upperneck 27.5767 -0.413941 1.32384
head 13.4633 0.18755 0.352769
rclavicle 6.56067e-015 5.96354e-015
rhumerus -35.9467 4.35527 -82.1923
rradius 38.9367
rwrist 2.70428
rhand -18.2267 22.7609
rfingers 7.12502
rthumb 8.05153 -7.06575
lclavicle 6.56067e-015 5.96354e-015
lhumerus -36.5984 0.44589 84.6189
lradius 30.0642
lwrist 26.1087
lhand -18.5311 55.0622
lfingers 7.12502
lthumb 7.75773 84.8999
rfemur -2.33882 24.3998 21.1249
rtibia 15.0355
rfoot -18.1718 -35.7769
rtoes 1.39354
lfemur -10.0202 -18.2727 -18.098
ltibia 24.3485
lfoot -18.9218 22.7557
ltoes -25.9053
8
root -17.6182 17.5608 -2.05931 -69.223 89.2898 -73.4907
lowerback 0.211876 0.393081 -1.50192
upperback -1.99121 0.541694 1.16642
thorax -2.18582 0.316472 2.02719
lowerneck -24.8361 0.0186881 0.60989
upperneck 27.4547 -0.489456 1.56064
head 13.4146 0.177644 0.445856
rclavicle 4.43694e-015 -1.15295e-014
rhumerus -36.0383 4.26628 -82.0726
rradius 38.4804
rwrist 3.09365
rhand -18.2963 22.7487
rfingers 7.12502
rthumb 7.98441 -7.08046
lclavicle 4.43694e-015 -1.15295e-014
lhumerus -36.7482 0.475893 84.4615
lradius 30.2911
lwrist 25.997
lhand -18.4045 54.8145
lfingers 7.12502
lthumb 7.87993 84.6476
rfemur -2.9286 23.9776 21.1544
rtibia 15.6763
rfoot -18.3929 -35.3366
rtoes 1.27732
lfemur -9.96889 -19.4855 -17.8986
ltibia 23.889
lfoot -19.0177 23.7899
ltoes -25.1938
9
root -17.6542 17.5726 -2.03348 -75.4613 89.3113 -79.8391
lowerback 0.239382 0.438048 -1.46022
upperback -1.98433 0.602033 1.16983
thorax -2.19659 0.345932 2.00575
lowerneck -24.796 -0.0444343 0.556894
upperneck 27.3182 -0.618217 1.74058
head 13.3518 0.139809 0.50053
rclavicle -8.91425e-016 9.93923e-016
rhumerus -36.1857 4.07203 -81.9424
rradius 37.9011
rwrist 3.29083
rhand -18.3776 22.6776
rfingers 7.12502
rthumb 7.90587 -7.15459
lclavicle -8.91425e-016 9.93923e-016
lhumerus -36.9213 0.25522 84.4194
lradius 30.6312
lwrist 26.2118
lhand -18.7167 55.0678
lfingers 7.12502
lthumb 7.57862 84.9121
rfemur -3.52818 23.3094 21.058
rtibia 16.1715
rfoot -18.3274 -34.7528
rtoes 0.266232
lfemur -10.033 -20.9422 -17.7595
ltibia 23.5489
lfoot -19.0197 25.1238
ltoes -25.2168
10
root -17.6928 17.5725 -2.01019 -81.5437 89.4319 -86.0168
lowerback 0.304182 0.471842 -1.54898
upperback -1.98667 0.64452 1.15294
thorax -2.23832 0.368903 2.03677
lowerneck -24.8147 -0.0824506 0.673468
upperneck 27.2604 -0.693215 1.65058
head 13.3313 0.105342 0.431008
rclavicle 7.8784e-015 7.35503e-015
rhumerus -36.277 3.88072 -81.7796
rradius 37.057
rwrist 3.35569
rhand -18.0879 23.2418
rfingers 7.12502
rthumb 8.18553 -6.57965
lclavicle 7.8784e-015 7.35503e-015
lhumerus -36.9908 0.305491 84.3107
lradius 30.8104
lwrist 26.3553
lhand -18.9933 55.1098
lfingers 7.12502
lthumb 7.31157 84.9634
rfemur -4.01471 22.7415 20.856
rtibia 16.4991
rfoot -18.0034 -34.3279
rtoes -1.30368
lfemur -10.1714 -22.407 -17.7485
ltibia 23.3824
lfoot -19.0163 26.4726
ltoes -25.2518
11
root -17.7306 17.5735 -1.98557 -95.4169 89.5115 -99.9468
lowerback 0.363914 0.498621 -1.60374
upperback -1.94432 0.677166 1.12314
thorax -2.23023 0.385056 2.03579
lowerneck -24.8171 -0.0854356 0.801022
upperneck 27.0899 -0.722988 1.55784
head 13.2604 0.0886201 0.365862
rclavicle -1.28278e-015 2.78299e-015
rhumerus -36.288 3.65688 -81.6105
rradius 36.0296
rwrist 3.36487
rhand -18.1686 23.0587
rfingers 7.12502
rthumb 8.10761 -6.76579
lclavicle -1.28278e-015 2.78299e-015
lhumerus -36.8928 0.478517 84.1163
lradius 30.8393
lwrist 26.3605
lhand -19.0912 55.181
lfingers 7.12502
lthumb 7.21711 85.0379
rfemur -4.33355 22.6161 20.7678
rtibia 16.7202
rfoot -17.8551 -34.281
rtoes -1.79072
lfemur -10.3502 -23.5126 -17.6993
ltibia 23.338
lfoot -18.7935 27.4738
ltoes -25.6739
12
root -17.7704 17.5763 -1.9622 -112.752 89.4648 -117.417
lowerback 0.369857 0.503871 -1.54867
upperback -1.91457 0.684468 1.11757
thorax -2.2025 0.38697 1.99902
lowerneck -24.8053 -0.0772528 0.776681
upperneck 26.8895 -0.743761 1.68129
head 13.1763 0.0905361 0.412676
rclavicle -4.05334e-015 -8.94531e-015
rhumerus -36.2778 3.3434 -81.3828
rradius 35.0154
rwrist 3.6331
rhand -17.722 22.8983
rfingers 7.12502
rthumb 8.53861 -6.90905
lclavicle -4.05334e-015 -8.94531e-015
lhumerus -36.8057 0.500564 84.002
lradius 30.9469
lwrist 26.5327
lhand -19.2907 55.6819
lfingers 7.12502
lthumb 7.02454 85.5453
rfemur -4.70071 22.3715 20.7264
rtibia 16.8479
rfoot -17.728 -34.1171
rtoes -1.8682
lfemur -10.7181 -24.3326 -17.5006
ltibia 23.3856
lfoot -19.1448 28.1446
ltoes -24.6944
13
root -17.8103 17.5794 -1.94106 -123.165 89.3651 -127.989
lowerback 0.398483 0.488141 -1.52051
upperback -1.91657 0.664972 1.17186
thorax -2.2201 0.377599 2.03923
lowerneck -24.849 -0.0769742 0.736918
upperneck 26.8239 -0.744568 1.72733
head 13.1585 0.0910109 0.436618
rclavicle -8.85213e-016 -2.38542e-015
rhumerus -36.2144 2.82635 -80.9786
rradius 33.8542
rwrist 4.35861
rhand -17.4826 22.3264
rfingers 7.12502
rthumb 8.76969 -7.47144
lclavicle -8.85213e-016 -2.38542e-015
lhumerus -36.7827 0.668817 83.905
lradius 31.0685
lwrist 26.6978
lhand -19.3239 55.7694
lfingers 7.12502
lthumb 6.9925 85.6339
rfemur -5.07974 21.7702 20.6718
rtibia 16.8877
rfoot -17.6003 -33.5748
rtoes -2.28633
lfemur -11.1243 -25.3877 -17.2592
ltibia 23.4846
lfoot -19.3876 29.0265
ltoes -24.1369
14
root -17.8479 17.5791 -1.91994 -132.252 89.2081 -137.141
lowerback 0.492626 0.457455 -1.52136
upperback -1.88351 0.624134 1.24478
thorax -2.23806 0.357738 2.1151
lowerneck -24.9119 -0.0720617 0.801399
upperneck 26.761 -0.725415 1.59549
head 13.144 0.0851358 0.377018
rclavicle -1.47846e-015 -8.34896e-015
rhumerus -36.1165 2.1395 -80.4729
rradius 32.5423
rwrist 5.14474
rhand -17.2678 22.3661
rfingers 7.12502
rthumb 8.97689 -7.42296
lclavicle -1.47846e-015 -8.34896e-015
lhumerus -36.6683 1.19243 83.6663
lradius 31.046
lwrist 26.4238
lhand -19.0429 55.4273
lfingers 7.12502
lthumb 7.26373 85.2826
rfemur -5.27936 21.3453 20.6995
rtibia 16.8431
rfoot -17.456 -33.2228
rtoes -2.63932
lfemur -11.4113 -26.6821 -17.038
ltibia 23.6199
lfoot -19.924 29.9284
ltoes -22.7068
15
root -17.886 17.576 -1.89833 -138.57 88.9249 -143.501
lowerback 0.585323 0.401033 -1.4542
upperback -1.819 0.550152 1.3299
thorax -2.22049 0.319513 2.16636
lowerneck -24.9265 -0.0488245 0.822513
upperneck 26.5828 -0.698002 1.57523
head 13.0734 0.0921448 0.36886
rclavicle -1.67725e-015 -4.96962e-015
rhumerus -36.0392 1.41717 -79.9516
rradius 31.2943
rwrist 5.83156
rhand -17.1454 22.3903
rfingers 7.12502
rthumb 9.09507 -7.39357
lclavicle -1.67725e-015 -4.96962e-015
lhumerus -36.4822 1.75099 83.429
lradius 31.0177
lwrist 26.0083
lhand -18.7761 55.3421
lfingers 7.12502
lthumb 7.52123 85.1884
rfemur -5.40242 21.357 20.8469
rtibia 16.7748
rfoot -17.3551 -33.3287
rtoes -2.53244
lfemur -11.7301 -26.7922 -16.7257
ltibia 23.7368
lfoot -19.8626 29.7859
ltoes -22.4985
